{
  "accessors": [
    {
      "bufferView": 2,
      "componentType": 5126,
      "count": 5281,
      "max": [
        3.6537566184997559,
        10.06617546081543,
        1.6088978052139282
      ],
      "min": [
        -3.6537644863128662,
        -0.0086628850549459457,
        -0.39681500196456909
      ],
      "type": "VEC3"
    },
    {
      "bufferView": 2,
      "byteOffset": 63372,
      "componentType": 5126,
      "count": 5281,
      "max": [
        0.99960243701934814,
        0.99920403957366943,
        0.99996471405029297
      ],
      "min": [
        -0.99962246417999268,
        -0.99737441539764404,
        -0.99952524900436401
      ],
      "type": "VEC3"
    },
    {
      "bufferView": 3,
      "componentType": 5126,
      "count": 5281,
      "max": [
        0.99999743700027466,
        0.99996453523635864,
        0.99865263700485229,
        1
      ],
      "min": [
        -0.99998396635055542,
        -0.99964481592178345,
        -0.99966275691986084,
        -1
      ],
      "type": "VEC4"
    },
    {
      "bufferView": 3,
      "byteOffset": 84496,
      "componentType": 5126,
      "count": 5281,
      "max": [
        0.70196080207824707,
        0.7137255072593689,
        0.73725491762161255,
        1
      ],
      "min": [
        0.10980392247438431,
        0.10980392247438431,
        0.10980392247438431,
        1
      ],
      "type": "VEC4"
    },
    {
      "bufferView": 1,
      "componentType": 5126,
      "count": 5281,
      "max": [
        0.99876272678375244,
        0.99561101198196411
      ],
      "min": [
        0.0097751021385192871,
        0.0079419612884521484
      ],
      "type": "VEC2"
    },
    {
      "bufferView": 0,
      "componentType": 5125,
      "count": 28752,
      "max": [
        5280
      ],
      "min": [
        0
      ],
      "type": "SCALAR"
    }
  ],
  "asset": {
    "extras": {
      "author": "Duane's Mind (https://sketchfab.com/duanesmind)",
      "license": "CC-BY-4.0 (http://creativecommons.org/licenses/by/4.0/)",
      "source": "https://sketchfab.com/models/7319eff76e5a4327b82929b6f24c6ca8",
      "title": "Alien Character"
    },
    "generator": "Sketchfab-3.19.4",
    "version": "2.0"
  },
  "bufferViews": [
    {
      "buffer": 0,
      "byteLength": 115008,
      "byteOffset": 0,
      "name": "floatBufferViews",
      "target": 34963
    },
    {
      "buffer": 0,
      "byteLength": 42248,
      "byteOffset": 115008,
      "byteStride": 8,
      "name": "floatBufferViews",
      "target": 34962
    },
    {
      "buffer": 0,
      "byteLength": 126744,
      "byteOffset": 157256,
      "byteStride": 12,
      "name": "floatBufferViews",
      "target": 34962
    },
    {
      "buffer": 0,
      "byteLength": 168992,
      "byteOffset": 284000,
      "byteStride": 16,
      "name": "floatBufferViews",
      "target": 34962
    }
  ],
  "buffers": [
    {
      "byteLength": 452992,
      "uri": "scene.bin"
    }
  ],
  "images": [
    {
      "uri": "textures/lambert1_baseColor.png"
    },
    {
      "uri": "textures/lambert1_normal.png"
    },
    {
      "uri": "textures/lambert1_metallicRoughness.png"
    }
  ],
  "materials": [
    {
      "doubleSided": true,
      "name": "lambert1",
      "normalTexture": {
        "index": 1,
        "scale": 1,
        "texCoord": 0
      },
      "pbrMetallicRoughness": {
        "baseColorFactor": [
          1,
          1,
          1,
          1
        ],
        "baseColorTexture": {
          "index": 0,
          "texCoord": 0
        },
        "metallicFactor": 0,
        "metallicRoughnessTexture": {
          "index": 2,
          "texCoord": 0
        },
        "roughnessFactor": 0.52556818179999998
      }
    }
  ],
  "meshes": [
    {
      "name": "Grey__2__lambert1_0",
      "primitives": [
        {
          "attributes": {
            "COLOR_0": 3,
            "NORMAL": 1,
            "POSITION": 0,
            "TANGENT": 2,
            "TEXCOORD_0": 4
          },
          "indices": 5,
          "material": 0,
          "mode": 4
        }
      ]
    }
  ],
  "nodes": [
    {
      "children": [
        1
      ],
      "name": "RootNode (gltf orientation matrix)",
      "rotation": [
        -0.70710678118654746,
        -0,
        -0,
        0.70710678118654757
      ]
    },
    {
      "children": [
        2
      ],
      "name": "RootNode (model correction matrix)"
    },
    {
      "children": [
        3
      ],
      "matrix": [
        1,
        0,
        0,
        0,
        0,
        0,
        1,
        0,
        0,
        -1,
        0,
        0,
        0,
        0,
        0,
        1
      ],
      "name": "ec23acc3be5e4facb91a5fedc8e46b60.fbx"
    },
    {
      "children": [
        4
      ],
      "name": "RootNode"
    },
    {
      "children": [
        5
      ],
      "name": "Grey__2_"
    },
    {
      "mesh": 0,
      "name": "Grey__2__lambert1_0"
    }
  ],
  "samplers": [
    {
      "magFilter": 9729,
      "minFilter": 9987,
      "wrapS": 10497,
      "wrapT": 10497
    }
  ],
  "scene": 0,
  "scenes": [
    {
      "name": "OSG_Scene",
      "nodes": [
        0
      ]
    }
  ],
  "textures": [
    {
      "sampler": 0,
      "source": 0
    },
    {
      "sampler": 0,
      "source": 1
    },
    {
      "sampler": 0,
      "source": 2
    }
  ]
}

