{
  "accessors": [
    {
      "bufferView": 2,
      "componentType": 5126,
      "count": 1074,
      "max": [
        0.99997097253799438,
        0.99689000844955444,
        0.99686098098754883
      ],
      "min": [
        -0.99997097253799438,
        -0.99689000844955444,
        -0.99686199426651001
      ],
      "type": "VEC3"
    },
    {
      "bufferView": 2,
      "byteOffset": 12888,
      "componentType": 5126,
      "count": 1074,
      "max": [
        0.99997097253799438,
        0.99689072370529175,
        0.99686187505722046
      ],
      "min": [
        -0.99997103214263916,
        -0.99689072370529175,
        -0.99686163663864136
      ],
      "type": "VEC3"
    },
    {
      "bufferView": 3,
      "componentType": 5126,
      "count": 1074,
      "max": [
        0.98186540603637695,
        0.996235191822052,
        0.23246666789054871,
        1
      ],
      "min": [
        -0.98191577196121216,
        -0.99622714519500732,
        -0.28198164701461792,
        -1
      ],
      "type": "VEC4"
    },
    {
      "bufferView": 1,
      "componentType": 5126,
      "count": 1074,
      "max": [
        1.958590030670166,
        1.0643199682235718
      ],
      "min": [
        -0.35120201110839844,
        0.081963002681732178
      ],
      "type": "VEC2"
    },
    {
      "bufferView": 0,
      "componentType": 5125,
      "count": 5952,
      "max": [
        1073
      ],
      "min": [
        0
      ],
      "type": "SCALAR"
    }
  ],
  "asset": {
    "extras": {
      "author": "Chaitanya Krishnan (https://sketchfab.com/chaitanyak)",
      "license": "CC-BY-4.0 (http://creativecommons.org/licenses/by/4.0/)",
      "source": "https://sketchfab.com/models/uxszTZETjcYGoKcS1RZlsAa92ZT",
      "title": "eye1"
    },
    "generator": "Sketchfab-3.28.5",
    "version": "2.0"
  },
  "bufferViews": [
    {
      "buffer": 0,
      "byteLength": 23808,
      "byteOffset": 0,
      "name": "floatBufferViews",
      "target": 34963
    },
    {
      "buffer": 0,
      "byteLength": 8592,
      "byteOffset": 23808,
      "byteStride": 8,
      "name": "floatBufferViews",
      "target": 34962
    },
    {
      "buffer": 0,
      "byteLength": 25776,
      "byteOffset": 32400,
      "byteStride": 12,
      "name": "floatBufferViews",
      "target": 34962
    },
    {
      "buffer": 0,
      "byteLength": 17184,
      "byteOffset": 58176,
      "byteStride": 16,
      "name": "floatBufferViews",
      "target": 34962
    }
  ],
  "buffers": [
    {
      "byteLength": 75360,
      "uri": "scene.bin"
    }
  ],
  "images": [
    {
      "uri": "textures/Material.001_heye006.jpg.001_baseColor.jpeg"
    }
  ],
  "materials": [
    {
      "doubleSided": true,
      "name": "Material.001_heye006.jpg.001",
      "pbrMetallicRoughness": {
        "baseColorFactor": [
          1,
          1,
          1,
          1
        ],
        "baseColorTexture": {
          "index": 0,
          "texCoord": 0
        },
        "metallicFactor": 0,
        "roughnessFactor": 0.84349154199999998
      }
    }
  ],
  "meshes": [
    {
      "primitives": [
        {
          "attributes": {
            "NORMAL": 1,
            "POSITION": 0,
            "TANGENT": 2,
            "TEXCOORD_0": 3
          },
          "indices": 4,
          "material": 0,
          "mode": 4
        }
      ]
    }
  ],
  "nodes": [
    {
      "children": [
        1
      ],
      "name": "RootNode (gltf orientation matrix)",
      "rotation": [
        -0.70710678118654746,
        -0,
        -0,
        0.70710678118654757
      ]
    },
    {
      "children": [
        2
      ],
      "name": "RootNode (model correction matrix)"
    },
    {
      "children": [
        3
      ],
      "name": "eye1.obj.cleaner.materialmerger.gles"
    },
    {
      "mesh": 0,
      "name": ""
    }
  ],
  "samplers": [
    {
      "magFilter": 9729,
      "minFilter": 9987,
      "wrapS": 10497,
      "wrapT": 10497
    }
  ],
  "scene": 0,
  "scenes": [
    {
      "name": "OSG_Scene",
      "nodes": [
        0
      ]
    }
  ],
  "textures": [
    {
      "sampler": 0,
      "source": 0
    }
  ]
}

